PathFileType	4	(X/Y/Z)	/Users/FranklinZhao/OpenSimProject/Simulation/Models/Rajapogal_2015/marker_data/trc/SN001_0010_10m_01.trc
DataRate	CameraRate	NumFrames	NumMarkers	Units	OrigDataRate	OrigDataStartFrame	OrigNumFrames
200.000000	200.000000	4	72	mm	200.000000	160	641
Frame#	Time	LPSIS			RPSIS			LICR			RICR			LASIS			RASIS			STER			XPRO			C7			T4			T8			T10			RUA1			RUA2			RUA3			RUA4			RHLE			RHME			RTEMP			RHEAD			LHEAD			LTEMP			RACR			LACR			LUA1			LUA2			LUA3			LUA4			LHLE			LHME			LFA1			LFA2			LFA3			LRSP			LUSP			RFA1			RFA2			RFA3			RRSP			RUSP			LTH1			LTH2			LTH3			LTH4			LFLE			LFME			LSK1			LSK2			LSK3			LSK4			LTAM			LFAL			LFCC			LFMT1			LFMT2			LFMT5			RTH1			RTH2			RTH3			RTH4			RFLE			RFME			RSK1			RSK2			RSK3			RSK4			RFAL			RTAM			RFCC			RFMT1			RFMT2			RFMT5			
		X1	Y1	Z1	X2	Y2	Z2	X3	Y3	Z3	X4	Y4	Z4	X5	Y5	Z5	X6	Y6	Z6	X7	Y7	Z7	X8	Y8	Z8	X9	Y9	Z9	X10	Y10	Z10	X11	Y11	Z11	X12	Y12	Z12	X13	Y13	Z13	X14	Y14	Z14	X15	Y15	Z15	X16	Y16	Z16	X17	Y17	Z17	X18	Y18	Z18	X19	Y19	Z19	X20	Y20	Z20	X21	Y21	Z21	X22	Y22	Z22	X23	Y23	Z23	X24	Y24	Z24	X25	Y25	Z25	X26	Y26	Z26	X27	Y27	Z27	X28	Y28	Z28	X29	Y29	Z29	X30	Y30	Z30	X31	Y31	Z31	X32	Y32	Z32	X33	Y33	Z33	X34	Y34	Z34	X35	Y35	Z35	X36	Y36	Z36	X37	Y37	Z37	X38	Y38	Z38	X39	Y39	Z39	X40	Y40	Z40	X41	Y41	Z41	X42	Y42	Z42	X43	Y43	Z43	X44	Y44	Z44	X45	Y45	Z45	X46	Y46	Z46	X47	Y47	Z47	X48	Y48	Z48	X49	Y49	Z49	X50	Y50	Z50	X51	Y51	Z51	X52	Y52	Z52	X53	Y53	Z53	X54	Y54	Z54	X55	Y55	Z55	X56	Y56	Z56	X57	Y57	Z57	X58	Y58	Z58	X59	Y59	Z59	X60	Y60	Z60	X61	Y61	Z61	X62	Y62	Z62	X63	Y63	Z63	X64	Y64	Z64	X65	Y65	Z65	X66	Y66	Z66	X67	Y67	Z67	X68	Y68	Z68	X69	Y69	Z69	X70	Y70	Z70	X71	Y71	Z71	X72	Y72	Z72	

161	0.8	-841.4002685546875	292.0708312988281	1027.288696289062	-842.3663940429688	212.84716796875	1026.61572265625	-814.3960571289062	380.3415222167969	1088.484497070312	-811.3263549804688	118.7160568237305	1105.463012695312	-647.6994018554688	372.2195129394531	1004.324768066406	-654.1011352539062	116.9518508911133	1001.242065429688	-679.290283203125	263.4277648925781	1471.700927734375	-614.8853759765625	257.7494201660156	1266.4541015625	-811.9495849609375	261.8850708007812	1573.010498046875	-865.5248413085938	265.5303955078125	1462.061157226562	-866.7914428710938	258.4261474609375	1328.499389648438	-861.8695068359375	261.3457336425781	1283.568237304688	-813.6790161132812	14.38123989105225	1362.062866210938	-738.9389038085938	20.86376953125	1352.835205078125	-734.6294555664062	7.912516117095947	1279.865844726562	-809.0433349609375	-0.0420745424926281	1277.259155273438	-781.0791625976562	-2.26086950302124	1187.7939453125	-800.4902954101562	75.16098785400391	1179.304321289062	-650.369140625	189.7443084716797	1730.6328125	-606.741455078125	225.3595886230469	1739.73583984375	-608.8453369140625	307.4235534667969	1734.665893554688	-657.029541015625	345.3551940917969	1717.7998046875	-770.4815673828125	79.48558807373047	1527.593872070312	-769.68701171875	451.896484375	1519.207397460938	-734.08251953125	495.9702758789062	1358.424560546875	-806.7974853515625	507.523193359375	1341.54052734375	-798.4575805664062	519.5110473632812	1255.990234375	-726.7462158203125	507.2706604003906	1271.850830078125	-764.582763671875	516.0352783203125	1185.609252929688	-801.1362915039062	450.6751098632812	1172.622192382812	-640.287841796875	482.4803466796875	984.35302734375	-640.7899169921875	528.8877563476562	989.5179443359375	-650.2030639648438	499.6914978027344	955.8915405273438	-672.9112548828125	469.293701171875	917.0281982421875	-686.4274291992188	539.4550170898438	917.7018432617188	-676.2881469726562	-49.44268798828125	1021.903930664062	-654.4443359375	-9.160628318786621	1017.548889160156	-664.4597778320312	-23.07113647460938	987.2538452148438	-656.7744750976562	2.894891738891602	932.2156982421875	-696.7183837890625	-50.45336532592773	936.9113159179688	-685.3008422851562	415.2552185058594	718.1080932617188	-735.2929077148438	412.0303955078125	717.5564575195312	-741.2133178710938	389.0049438476562	612.2640991210938	-676.6004638671875	397.9480590820312	617.4967651367188	-713.902099609375	372.8038330078125	524.4853515625	-719.689453125	252.5633850097656	514.483154296875	-736.7661743164062	390.4648132324219	344.0758361816406	-797.694580078125	380.7813415527344	349.5128479003906	-805.161376953125	363.9277648925781	264.2343444824219	-741.5585327148438	376.1325073242188	262.6145324707031	-741.410400390625	257.1131896972656	97.33061981201172	-789.1508178710938	324.9211730957031	80.80551910400391	-816.1220703125	268.1099548339844	46.75146484375	-606.4058227539062	291.0753479003906	38.20653533935547	-612.3017578125	327.1269226074219	37.96261596679688	-662.970458984375	371.2070922851562	27.90186309814453	-678.7074584960938	81.44384765625	739.9231567382812	-620.2245483398438	70.00164031982422	737.3659057617188	-592.5214233398438	76.52182769775391	655.274658203125	-653.5517578125	93.66211700439453	642.1285400390625	-603.8340454101562	99.06272888183594	544.6583251953125	-576.1883544921875	217.1539916992188	521.6297607421875	-729.2169799804688	95.70953369140625	440.6883544921875	-676.8496704101562	83.15370178222656	416.107177734375	-744.68603515625	104.3905563354492	333.4601745605469	-786.8548583984375	110.1598358154297	382.2584228515625	-915.494384765625	156.1802368164062	232.4833374023438	-862.96044921875	223.990966796875	213.8489990234375	-952.1399536132812	213.3788452148438	229.4631042480469	-831.6596069335938	172.1030120849609	86.07064056396484	-832.4605102539062	141.9577941894531	86.49016571044922	-867.9218139648438	104.7031021118164	108.9370269775391	
162	0.805	-833.3756713867188	292.4967346191406	1027.441528320312	-834.2415771484375	213.0922088623047	1026.724243164062	-806.2406005859375	381.1206359863281	1088.826293945312	-803.3223876953125	119.2700042724609	1105.948120117188	-639.8541259765625	372.7601928710938	1004.276550292969	-645.9456787109375	117.7989730834961	1001.847473144531	-671.0205688476562	263.5107727050781	1471.935668945312	-606.71484375	258.0635986328125	1266.755004882812	-803.499267578125	261.9909362792969	1573.234741210938	-857.216064453125	266.1116027832031	1461.906372070312	-858.5238037109375	259.0422668457031	1328.75390625	-853.62060546875	262.1114196777344	1283.942993164062	-806.7166137695312	14.78292274475098	1361.978637695312	-732.010498046875	21.26397323608398	1352.291381835938	-728.413818359375	8.607989311218262	1279.244506835938	-802.7496337890625	0.6183586716651917	1277.180053710938	-775.2335205078125	-1.314675569534302	1187.642211914062	-794.5958862304688	76.16490173339844	1179.243408203125	-641.7733154296875	189.5190124511719	1730.736206054688	-598.230712890625	225.1292877197266	1739.750244140625	-600.1591186523438	307.0594177246094	1734.954345703125	-648.4093627929688	345.1875	1717.860107421875	-762.4189453125	79.55166625976562	1527.250732421875	-760.8904418945312	451.9056396484375	1520.03759765625	-723.8274536132812	496.6470336914062	1359.830932617188	-796.3477172851562	508.3781127929688	1342.126831054688	-786.9596557617188	520.677734375	1256.755249023438	-715.49609375	508.0443725585938	1273.44970703125	-752.5545043945312	517.4422607421875	1186.822265625	-788.9359130859375	452.2398681640625	1173.089965820312	-624.1307373046875	482.8424377441406	987.9027709960938	-624.73486328125	529.5540771484375	992.9407958984375	-633.364013671875	500.0864868164062	959.1602783203125	-655.621337890625	470.2335815429688	919.9713134765625	-668.6968994140625	540.3499755859375	920.4134521484375	-672.87451171875	-48.38351440429688	1020.224792480469	-651.1817626953125	-8.17755126953125	1015.644409179688	-661.555419921875	-22.10626983642578	985.3421020507812	-654.8374633789062	3.869497299194336	930.1226196289062	-694.4970703125	-49.55252838134766	935.5096435546875	-680.2567138671875	415.7367858886719	717.692138671875	-730.7199096679688	411.8318481445312	717.98779296875	-737.8857421875	388.8115844726562	612.648193359375	-673.3067626953125	397.6490173339844	617.030029296875	-712.1536865234375	372.5972595214844	524.4362182617188	-718.0015869140625	252.0678100585938	514.6131591796875	-736.04345703125	390.1007690429688	344.3447875976562	-796.9525756835938	380.2113647460938	349.8102111816406	-804.0399169921875	362.6518859863281	264.2196350097656	-740.8721923828125	375.6702880859375	262.5997619628906	-740.7704467773438	256.9661254882812	97.422607421875	-789.3204956054688	325.0066833496094	81.60817718505859	-815.7890625	267.3076782226562	47.07884979248047	-606.113037109375	291.2893981933594	38.06310653686523	-612.1876220703125	327.1823120117188	37.84559631347656	-662.881103515625	371.1871337890625	27.92703628540039	-667.871337890625	81.38240814208984	741.2520141601562	-608.8477172851562	70.40408325195312	739.5252075195312	-579.884033203125	76.88873291015625	657.7876586914062	-640.8355712890625	93.68488311767578	643.5664672851562	-590.0005493164062	99.61294555664062	546.75927734375	-561.9207153320312	217.4710693359375	524.4553833007812	-713.1593017578125	95.96503448486328	439.7760620117188	-660.33544921875	83.91751098632812	416.5242919921875	-726.18017578125	105.028938293457	332.4198303222656	-769.1605224609375	110.7211837768555	380.0458374023438	-894.615478515625	156.4664459228516	227.1796417236328	-841.7760620117188	224.7658996582031	210.2847442626953	-931.4193115234375	213.7971649169922	222.7593688964844	-805.441162109375	172.9117889404297	84.19696044921875	-806.2592163085938	142.6787567138672	84.52867126464844	-842.3981323242188	105.4721069335938	105.7407608032227	
163	0.8100000000000001	-825.3185424804688	292.8792724609375	1027.489379882812	-826.2305908203125	213.4673461914062	1026.947143554688	-798.1428833007812	381.5889282226562	1088.743408203125	-795.250244140625	119.8245849609375	1106.568359375	-631.9292602539062	373.6942138671875	1004.020141601562	-637.7037353515625	118.5276184082031	1002.503295898438	-662.8135375976562	263.4400634765625	1472.064453125	-598.4595336914062	258.3342895507812	1266.915771484375	-795.072509765625	262.0436096191406	1573.381713867188	-848.9086303710938	266.5559387207031	1462.389770507812	-850.2688598632812	259.83447265625	1328.962768554688	-845.3280029296875	262.7610778808594	1284.01806640625	-799.7620239257812	15.30933952331543	1361.850463867188	-725.09326171875	21.55722045898438	1351.559204101562	-722.0025634765625	9.118241310119629	1278.623046875	-796.3636474609375	1.442148566246033	1276.955200195312	-769.6509399414062	-0.3469268381595612	1187.255126953125	-788.9597778320312	77.10835266113281	1179.411254882812	-633.233154296875	189.2046203613281	1730.746704101562	-589.4546508789062	224.7679290771484	1739.64306640625	-591.4183959960938	306.6432189941406	1734.866821289062	-639.7496948242188	344.7296142578125	1718.10009765625	-754.376953125	79.54380035400391	1526.990356445312	-752.0487670898438	451.8755798339844	1520.818237304688	-713.5881958007812	497.12646484375	1361.181274414062	-785.7899169921875	509.289306640625	1342.732421875	-775.3843994140625	521.991943359375	1257.490844726562	-704.2010498046875	508.8940734863281	1274.830322265625	-740.0732421875	518.9991455078125	1187.823120117188	-776.6265869140625	453.8331298828125	1173.265747070312	-608.1952514648438	483.6307373046875	991.3214111328125	-608.7354736328125	530.3009033203125	996.5218505859375	-616.8515014648438	500.74365234375	962.5176391601562	-638.3397216796875	470.93115234375	922.8353881835938	-651.1690063476562	541.2638549804688	922.9913940429688	-669.2327880859375	-47.55979156494141	1018.603942871094	-647.6343383789062	-7.290880680084229	1013.488159179688	-658.6123046875	-21.12408256530762	983.5070190429688	-652.7904663085938	4.740785121917725	928.0879516601562	-692.3612060546875	-48.86642837524414	934.1610717773438	-675.5989990234375	415.6724243164062	717.4444580078125	-726.077880859375	411.4071350097656	718.3250732421875	-734.5534057617188	388.5465393066406	613.08984375	-670.0523681640625	397.179931640625	616.4833374023438	-710.3016357421875	372.34423828125	524.478759765625	-715.8600463867188	251.6980743408203	514.7235717773438	-735.1062622070312	389.7655334472656	344.6452026367188	-795.9320678710938	379.5787658691406	350.3142395019531	-803.3727416992188	361.6144104003906	264.7084655761719	-740.2489624023438	375.2813110351562	263.2340393066406	-740.0755615234375	256.41552734375	97.95673370361328	-789.019287109375	324.5979614257812	81.90240478515625	-815.3180541992188	266.6468505859375	47.56172943115234	-605.8060302734375	291.4537048339844	38.01195907592773	-611.9518432617188	327.2416381835938	37.73377227783203	-662.8259887695312	371.1170959472656	27.83136177062988	-656.5992431640625	81.27235412597656	742.3295288085938	-597.3604736328125	70.69200897216797	741.5534057617188	-567.3828125	77.18654632568359	660.1710205078125	-628.2205810546875	93.67472076416016	645.0750122070312	-576.2942504882812	100.131217956543	548.7373657226562	-547.883056640625	217.883056640625	526.9854125976562	-697.1566772460938	96.35111236572266	438.9160766601562	-643.7634887695312	84.431884765625	416.73876953125	-707.6674194335938	105.7978134155273	331.073974609375	-751.747314453125	111.051513671875	377.7572326660156	-873.5284423828125	156.9041900634766	221.766845703125	-820.38525390625	225.5326080322266	206.5739898681641	-910.5294189453125	214.2293548583984	216.1512756347656	-779.3886108398438	173.5214691162109	82.131103515625	-779.9275512695312	143.3558349609375	82.51144409179688	-816.7666015625	106.2016677856445	102.2042388916016	
164	0.8150000000000001	-817.2603149414062	293.1118774414062	1027.6884765625	-818.6017456054688	213.3745574951172	1027.265625	-790.2945556640625	382.7301025390625	1088.909912109375	-787.203369140625	120.3309707641602	1106.700927734375	-623.586181640625	374.52099609375	1003.806762695312	-629.6511840820312	119.4900665283203	1002.830322265625	-654.4215698242188	263.5042419433594	1472.08935546875	-590.2538452148438	258.6654968261719	1266.994995117188	-786.7337646484375	262.1187744140625	1573.394165039062	-840.4793701171875	267.0832214355469	1462.420776367188	-841.9425659179688	260.5181274414062	1329.104858398438	-836.9584350585938	263.50537109375	1284.197021484375	-792.801025390625	15.85810470581055	1361.56005859375	-718.2217407226562	21.96517562866211	1350.879028320312	-715.6435546875	9.696843147277832	1277.694946289062	-790.0603637695312	2.25753927230835	1276.658813476562	-763.7816162109375	0.606601893901825	1186.651733398438	-783.1959228515625	78.01318359375	1179.153930664062	-624.7037963867188	188.7896423339844	1730.593139648438	-580.8790893554688	224.3303375244141	1739.485473632812	-582.8096923828125	306.3149108886719	1734.81591796875	-631.045166015625	344.4120788574219	1718.104736328125	-746.257568359375	79.61189270019531	1526.659790039062	-743.1405639648438	451.9022521972656	1521.329223632812	-703.243896484375	497.47607421875	1362.352294921875	-775.237548828125	510.2225952148438	1343.222412109375	-763.7962646484375	523.28955078125	1258.300415039062	-692.9874267578125	509.7704772949219	1276.187622070312	-727.6617431640625	520.4342041015625	1188.5732421875	-763.6986083984375	455.328125	1173.548828125	-592.5581665039062	484.6438598632812	994.7965087890625	-592.854736328125	531.1058959960938	999.942626953125	-600.314453125	501.5540466308594	965.854248046875	-621.0989990234375	471.716552734375	925.6513061523438	-633.7568359375	542.057861328125	925.5523071289062	-665.63427734375	-46.62051010131836	1016.618774414062	-644.2230834960938	-6.199706077575684	1011.311218261719	-655.5576171875	-20.42177391052246	981.5440673828125	-650.74853515625	5.679614067077637	926.0349731445312	-690.1009521484375	-48.01226043701172	932.7662963867188	-670.8969116210938	415.7866516113281	717.1219482421875	-721.5534057617188	411.4274291992188	718.4798583984375	-731.36962890625	388.1272888183594	613.4012451171875	-666.742431640625	396.8463745117188	616.0760498046875	-708.353271484375	372.1927490234375	524.5966796875	-713.5328979492188	251.4376068115234	514.8482055664062	-734.1412353515625	389.5154113769531	345.0504150390625	-794.8885498046875	378.9385375976562	350.9916687011719	-802.7001342773438	360.9662170410156	265.2103576660156	-739.4619140625	374.8260192871094	263.5484619140625	-738.798583984375	257.0162048339844	97.91888427734375	-788.2512817382812	323.2281799316406	82.18891143798828	-814.9267578125	265.9043579101562	47.96677017211914	-605.5255737304688	291.5985107421875	37.95551681518555	-611.6797485351562	327.3514404296875	37.58567810058594	-662.767578125	371.0516357421875	27.7712345123291	-645.9283447265625	81.755859375	743.1959838867188	-586.0330200195312	71.05503845214844	743.3507690429688	-554.97998046875	77.65357971191406	662.3523559570312	-615.701171875	93.67053985595703	646.5565795898438	-562.816650390625	100.467658996582	550.7735595703125	-534.095947265625	218.4801635742188	529.9815673828125	-681.250732421875	96.55699157714844	437.7632141113281	-627.4024047851562	84.91122436523438	417.1163024902344	-688.9535522460938	106.5041122436523	329.7510070800781	-734.2835693359375	111.4135589599609	375.3106994628906	-852.045166015625	157.2214508056641	216.1249694824219	-798.8135375976562	226.1149749755859	202.5634918212891	-889.155029296875	214.5436401367188	209.3957824707031	-753.2063598632812	174.5000152587891	79.93853759765625	-753.6181030273438	144.2080993652344	80.42366027832031	-791.123291015625	106.8797149658203	98.58982849121094	
